{"header":{"keySignatures":[],"meta":[],"name":"","ppq":96,"tempos":[{"bpm":120,"ticks":0}],"timeSignatures":[{"ticks":0,"timeSignature":[4,4],"measures":0}]},"tracks":[{"channel":0,"controlChanges":{},"pitchBends":[],"instrument":{"family":"piano","name":"acoustic grand piano","number":0},"notes":[{"duration":0.375,"durationTicks":72,"midi":64,"name":"E4","ticks":0,"time":0,"velocity":0.8},{"duration":0.375,"durationTicks":72,"midi":71,"name":"B4","ticks":72,"time":0.375,"velocity":0.8},{"duration":0.375,"durationTicks":72,"midi":59,"name":"B3","ticks":144,"time":0.75,"velocity":0.8},{"duration":0.125,"durationTicks":24,"midi":67,"name":"G4","ticks":216,"time":1.125,"velocity":0.8},{"duration":0.125,"durationTicks":24,"midi":71,"name":"B4","ticks":240,"time":1.25,"velocity":0.8},{"duration":0.625,"durationTicks":120,"midi":69,"name":"A4","ticks":264,"time":1.375,"velocity":0.8},{"duration":0.375,"durationTicks":72,"midi":65,"name":"F4","ticks":384,"time":2,"velocity":0.8},{"duration":0.375,"durationTicks":72,"midi":74,"name":"D5","ticks":456,"time":2.375,"velocity":0.8},{"duration":0.375,"durationTicks":72,"midi":59,"name":"B3","ticks":528,"time":2.75,"velocity":0.8},{"duration":0.125,"durationTicks":24,"midi":67,"name":"G4","ticks":600,"time":3.125,"velocity":0.8},{"duration":0.75,"durationTicks":144,"midi":71,"name":"B4","ticks":624,"time":3.25,"velocity":0.8},{"duration":0.375,"durationTicks":72,"midi":65,"name":"F4","ticks":768,"time":4,"velocity":0.8},{"duration":0.375,"durationTicks":72,"midi":71,"name":"B4","ticks":840,"time":4.375,"velocity":0.8},{"duration":0.375,"durationTicks":72,"midi":59,"name":"B3","ticks":912,"time":4.75,"velocity":0.8},{"duration":0.125,"durationTicks":24,"midi":67,"name":"G4","ticks":984,"time":5.125,"velocity":0.8},{"duration":0.75,"durationTicks":144,"midi":71,"name":"B4","ticks":1008,"time":5.25,"velocity":0.8},{"duration":0.375,"durationTicks":72,"midi":65,"name":"F4","ticks":1152,"time":6,"velocity":0.8},{"duration":0.375,"durationTicks":72,"midi":71,"name":"B4","ticks":1224,"time":6.375,"velocity":0.8},{"duration":0.375,"durationTicks":72,"midi":59,"name":"B3","ticks":1296,"time":6.75,"velocity":0.8},{"duration":0.125,"durationTicks":24,"midi":67,"name":"G4","ticks":1368,"time":7.125,"velocity":0.8},{"duration":0.75,"durationTicks":144,"midi":71,"name":"B4","ticks":1392,"time":7.25,"velocity":0.8}],"endOfTrackTicks":1536}]}