{"header":{"keySignatures":[],"meta":[],"name":"","ppq":96,"tempos":[{"bpm":120,"ticks":0}],"timeSignatures":[{"ticks":0,"timeSignature":[4,4],"measures":0}]},"tracks":[{"channel":0,"controlChanges":{},"pitchBends":[],"instrument":{"family":"piano","name":"acoustic grand piano","number":0},"notes":[{"duration":0.25,"durationTicks":48,"midi":60,"name":"C4","ticks":0,"time":0,"velocity":0.8},{"duration":0.125,"durationTicks":24,"midi":60,"name":"C4","ticks":48,"time":0.25,"velocity":0.8},{"duration":0.25,"durationTicks":48,"midi":62,"name":"D4","ticks":72,"time":0.375,"velocity":0.8},{"duration":0.375,"durationTicks":72,"midi":60,"name":"C4","ticks":120,"time":0.625,"velocity":0.8},{"duration":0.375,"durationTicks":72,"midi":65,"name":"F4","ticks":192,"time":1,"velocity":0.8},{"duration":0.625,"durationTicks":120,"midi":74,"name":"D5","ticks":264,"time":1.375,"velocity":0.8},{"duration":0.25,"durationTicks":48,"midi":60,"name":"C4","ticks":384,"time":2,"velocity":0.8},{"duration":0.125,"durationTicks":24,"midi":59,"name":"B3","ticks":432,"time":2.25,"velocity":0.8},{"duration":0.25,"durationTicks":48,"midi":62,"name":"D4","ticks":456,"time":2.375,"velocity":0.8},{"duration":0.625,"durationTicks":120,"midi":60,"name":"C4","ticks":504,"time":2.625,"velocity":0.8},{"duration":0.125,"durationTicks":24,"midi":65,"name":"F4","ticks":624,"time":3.25,"velocity":0.8},{"duration":0.625,"durationTicks":120,"midi":74,"name":"D5","ticks":648,"time":3.375,"velocity":0.8},{"duration":0.25,"durationTicks":48,"midi":60,"name":"C4","ticks":768,"time":4,"velocity":0.8},{"duration":0.125,"durationTicks":24,"midi":59,"name":"B3","ticks":816,"time":4.25,"velocity":0.8},{"duration":0.25,"durationTicks":48,"midi":62,"name":"D4","ticks":840,"time":4.375,"velocity":0.8},{"duration":0.625,"durationTicks":120,"midi":60,"name":"C4","ticks":888,"time":4.625,"velocity":0.8},{"duration":0.125,"durationTicks":24,"midi":65,"name":"F4","ticks":1008,"time":5.25,"velocity":0.8},{"duration":0.625,"durationTicks":120,"midi":74,"name":"D5","ticks":1032,"time":5.375,"velocity":0.8},{"duration":0.25,"durationTicks":48,"midi":60,"name":"C4","ticks":1152,"time":6,"velocity":0.8},{"duration":0.125,"durationTicks":24,"midi":59,"name":"B3","ticks":1200,"time":6.25,"velocity":0.8},{"duration":0.25,"durationTicks":48,"midi":62,"name":"D4","ticks":1224,"time":6.375,"velocity":0.8},{"duration":0.625,"durationTicks":120,"midi":60,"name":"C4","ticks":1272,"time":6.625,"velocity":0.8},{"duration":0.125,"durationTicks":24,"midi":65,"name":"F4","ticks":1392,"time":7.25,"velocity":0.8},{"duration":0.625,"durationTicks":120,"midi":74,"name":"D5","ticks":1416,"time":7.375,"velocity":0.8}],"endOfTrackTicks":1536}]}