{
    "notes": [
        {
          "duration": 0.375,
          "durationTicks": 72,
          "midi": 58,
          "name": "A#3",
          "ticks": 0,
          "time": 0,
          "velocity": 0.7874015748031497
        },
        {
          "duration": 0.375,
          "durationTicks": 72,
          "midi": 58,
          "name": "A#3",
          "ticks": 96,
          "time": 0.5,
          "velocity": 0.7874015748031497
        },
        {
          "duration": 0.375,
          "durationTicks": 72,
          "midi": 58,
          "name": "A#3",
          "ticks": 192,
          "time": 1,
          "velocity": 0.7874015748031497
        },
        {
          "duration": 0.25,
          "durationTicks": 48,
          "midi": 67,
          "name": "G4",
          "ticks": 288,
          "time": 1.5,
          "velocity": 0.7874015748031497
        },
        {
          "duration": 0.375,
          "durationTicks": 72,
          "midi": 65,
          "name": "F4",
          "ticks": 336,
          "time": 1.75,
          "velocity": 0.7874015748031497
        },
        {
          "duration": 0.375,
          "durationTicks": 72,
          "midi": 65,
          "name": "F4",
          "ticks": 432,
          "time": 2.25,
          "velocity": 0.7874015748031497
        },
        {
          "duration": 0.375,
          "durationTicks": 72,
          "midi": 60,
          "name": "C4",
          "ticks": 528,
          "time": 2.75,
          "velocity": 0.7874015748031497
        },
        {
          "duration": 0.375,
          "durationTicks": 72,
          "midi": 62,
          "name": "D4",
          "ticks": 624,
          "time": 3.25,
          "velocity": 0.7874015748031497
        },
        {
          "duration": 0.25,
          "durationTicks": 48,
          "midi": 58,
          "name": "A#3",
          "ticks": 720,
          "time": 3.75,
          "velocity": 0.7874015748031497
        },
        {
          "duration": 0.375,
          "durationTicks": 72,
          "midi": 62,
          "name": "D4",
          "ticks": 768,
          "time": 4,
          "velocity": 0.7874015748031497
        },
        {
          "duration": 0.375,
          "durationTicks": 72,
          "midi": 62,
          "name": "D4",
          "ticks": 864,
          "time": 4.5,
          "velocity": 0.7874015748031497
        },
        {
          "duration": 0.25,
          "durationTicks": 48,
          "midi": 62,
          "name": "D4",
          "ticks": 960,
          "time": 5,
          "velocity": 0.7874015748031497
        },
        {
          "duration": 0.25,
          "durationTicks": 48,
          "midi": 60,
          "name": "C4",
          "ticks": 1008,
          "time": 5.25,
          "velocity": 0.7874015748031497
        },
        {
          "duration": 0.25,
          "durationTicks": 48,
          "midi": 65,
          "name": "F4",
          "ticks": 1056,
          "time": 5.5,
          "velocity": 0.7874015748031497
        },
        {
          "duration": 0.375,
          "durationTicks": 72,
          "midi": 60,
          "name": "C4",
          "ticks": 1104,
          "time": 5.75,
          "velocity": 0.7874015748031497
        },
        {
          "duration": 0.375,
          "durationTicks": 72,
          "midi": 60,
          "name": "C4",
          "ticks": 1200,
          "time": 6.25,
          "velocity": 0.7874015748031497
        },
        {
          "duration": 0.375,
          "durationTicks": 72,
          "midi": 62,
          "name": "D4",
          "ticks": 1296,
          "time": 6.75,
          "velocity": 0.7874015748031497
        },
        {
          "duration": 0.25,
          "durationTicks": 48,
          "midi": 60,
          "name": "C4",
          "ticks": 1392,
          "time": 7.25,
          "velocity": 0.7874015748031497
        },
        {
          "duration": 0.25,
          "durationTicks": 48,
          "midi": 58,
          "name": "A#3",
          "ticks": 1440,
          "time": 7.5,
          "velocity": 0.7874015748031497
        },
        {
          "duration": 0.25,
          "durationTicks": 48,
          "midi": 57,
          "name": "A3",
          "ticks": 1488,
          "time": 7.75,
          "velocity": 0.7874015748031497
        }
      ]
}