{
  "header": {
    "keySignatures": [],
    "meta": [],
    "name": "",
    "ppq": 96,
    "tempos": [
      {
        "bpm": 120,
        "ticks": 0
      }
    ],
    "timeSignatures": [
      {
        "ticks": 0,
        "timeSignature": [
          4,
          4
        ],
        "measures": 0
      }
    ]
  },
  "tracks": [
    {
      "channel": 0,
      "controlChanges": {},
      "pitchBends": [],
      "instrument": {
        "family": "piano",
        "name": "acoustic grand piano",
        "number": 0
      },
      "name": "FL Keys 1",
      "notes": [
        {
          "duration": 0.25,
          "durationTicks": 48,
          "midi": 76,
          "name": "E5",
          "ticks": 0,
          "time": 0,
          "velocity": 0.7874015748031497
        },
        {
          "duration": 0.25,
          "durationTicks": 48,
          "midi": 76,
          "name": "E5",
          "ticks": 72,
          "time": 0.375,
          "velocity": 0.7874015748031497
        },
        {
          "duration": 0.25,
          "durationTicks": 48,
          "midi": 71,
          "name": "B4",
          "ticks": 144,
          "time": 0.75,
          "velocity": 0.7874015748031497
        },
        {
          "duration": 0.25,
          "durationTicks": 48,
          "midi": 71,
          "name": "B4",
          "ticks": 216,
          "time": 1.125,
          "velocity": 0.7874015748031497
        },
        {
          "duration": 0.25,
          "durationTicks": 48,
          "midi": 71,
          "name": "B4",
          "ticks": 288,
          "time": 1.5,
          "velocity": 0.7874015748031497
        },
        {
          "duration": 0.25,
          "durationTicks": 48,
          "midi": 80,
          "name": "G#5",
          "ticks": 336,
          "time": 1.75,
          "velocity": 0.7874015748031497
        },
        {
          "duration": 0.25,
          "durationTicks": 48,
          "midi": 78,
          "name": "F#5",
          "ticks": 384,
          "time": 2,
          "velocity": 0.7874015748031497
        },
        {
          "duration": 0.25,
          "durationTicks": 48,
          "midi": 78,
          "name": "F#5",
          "ticks": 456,
          "time": 2.375,
          "velocity": 0.7874015748031497
        },
        {
          "duration": 0.25,
          "durationTicks": 48,
          "midi": 76,
          "name": "E5",
          "ticks": 528,
          "time": 2.75,
          "velocity": 0.7874015748031497
        },
        {
          "duration": 0.25,
          "durationTicks": 48,
          "midi": 76,
          "name": "E5",
          "ticks": 600,
          "time": 3.125,
          "velocity": 0.7874015748031497
        },
        {
          "duration": 0.25,
          "durationTicks": 48,
          "midi": 76,
          "name": "E5",
          "ticks": 672,
          "time": 3.5,
          "velocity": 0.7874015748031497
        },
        {
          "duration": 0.25,
          "durationTicks": 48,
          "midi": 75,
          "name": "D#5",
          "ticks": 720,
          "time": 3.75,
          "velocity": 0.7874015748031497
        },
        {
          "duration": 0.25,
          "durationTicks": 48,
          "midi": 76,
          "name": "E5",
          "ticks": 768,
          "time": 4,
          "velocity": 0.7874015748031497
        },
        {
          "duration": 0.25,
          "durationTicks": 48,
          "midi": 76,
          "name": "E5",
          "ticks": 840,
          "time": 4.375,
          "velocity": 0.7874015748031497
        },
        {
          "duration": 0.25,
          "durationTicks": 48,
          "midi": 71,
          "name": "B4",
          "ticks": 912,
          "time": 4.75,
          "velocity": 0.7874015748031497
        },
        {
          "duration": 0.25,
          "durationTicks": 48,
          "midi": 71,
          "name": "B4",
          "ticks": 984,
          "time": 5.125,
          "velocity": 0.7874015748031497
        },
        {
          "duration": 0.25,
          "durationTicks": 48,
          "midi": 71,
          "name": "B4",
          "ticks": 1056,
          "time": 5.5,
          "velocity": 0.7874015748031497
        },
        {
          "duration": 0.25,
          "durationTicks": 48,
          "midi": 76,
          "name": "E5",
          "ticks": 1104,
          "time": 5.75,
          "velocity": 0.7874015748031497
        },
        {
          "duration": 0.25,
          "durationTicks": 48,
          "midi": 75,
          "name": "D#5",
          "ticks": 1152,
          "time": 6,
          "velocity": 0.7874015748031497
        },
        {
          "duration": 0.25,
          "durationTicks": 48,
          "midi": 75,
          "name": "D#5",
          "ticks": 1224,
          "time": 6.375,
          "velocity": 0.7874015748031497
        },
        {
          "duration": 0.25,
          "durationTicks": 48,
          "midi": 78,
          "name": "F#5",
          "ticks": 1296,
          "time": 6.75,
          "velocity": 0.7874015748031497
        },
        {
          "duration": 0.25,
          "durationTicks": 48,
          "midi": 78,
          "name": "F#5",
          "ticks": 1368,
          "time": 7.125,
          "velocity": 0.7874015748031497
        },
        {
          "duration": 0.25,
          "durationTicks": 48,
          "midi": 76,
          "name": "E5",
          "ticks": 1440,
          "time": 7.5,
          "velocity": 0.7874015748031497
        },
        {
          "duration": 0.25,
          "durationTicks": 48,
          "midi": 75,
          "name": "D#5",
          "ticks": 1488,
          "time": 7.75,
          "velocity": 0.7874015748031497
        }
      ],
      "endOfTrackTicks": 1536
    }
  ]
}