{
  "header": {
    "keySignatures": [],
    "meta": [],
    "name": "",
    "ppq": 96,
    "tempos": [
      {
        "bpm": 120,
        "ticks": 0
      }
    ],
    "timeSignatures": [
      {
        "ticks": 0,
        "timeSignature": [
          4,
          4
        ],
        "measures": 0
      }
    ]
  },
  "tracks": [
    {
      "channel": 0,
      "controlChanges": {},
      "pitchBends": [],
      "instrument": {
        "family": "piano",
        "name": "acoustic grand piano",
        "number": 0
      },
      "name": "FL Keys 1",
      "notes": [
        {
          "duration": 0.25,
          "durationTicks": 48,
          "midi": 67,
          "name": "G4",
          "ticks": 0,
          "time": 0,
          "velocity": 0.7874015748031497
        },
        {
          "duration": 0.25,
          "durationTicks": 48,
          "midi": 62,
          "name": "D4",
          "ticks": 96,
          "time": 0.5,
          "velocity": 0.7874015748031497
        },
        {
          "duration": 0.125,
          "durationTicks": 24,
          "midi": 67,
          "name": "G4",
          "ticks": 168,
          "time": 0.875,
          "velocity": 0.7874015748031497
        },
        {
          "duration": 0.125,
          "durationTicks": 24,
          "midi": 67,
          "name": "G4",
          "ticks": 216,
          "time": 1.125,
          "velocity": 0.7874015748031497
        },
        {
          "duration": 0.125,
          "durationTicks": 24,
          "midi": 67,
          "name": "G4",
          "ticks": 264,
          "time": 1.375,
          "velocity": 0.7874015748031497
        },
        {
          "duration": 0.25,
          "durationTicks": 48,
          "midi": 66,
          "name": "F#4",
          "ticks": 336,
          "time": 1.75,
          "velocity": 0.7874015748031497
        },
        {
          "duration": 0.25,
          "durationTicks": 48,
          "midi": 62,
          "name": "D4",
          "ticks": 384,
          "time": 2,
          "velocity": 0.7874015748031497
        },
        {
          "duration": 0.25,
          "durationTicks": 48,
          "midi": 57,
          "name": "A3",
          "ticks": 480,
          "time": 2.5,
          "velocity": 0.7874015748031497
        },
        {
          "duration": 0.125,
          "durationTicks": 24,
          "midi": 61,
          "name": "C#4",
          "ticks": 552,
          "time": 2.875,
          "velocity": 0.7874015748031497
        },
        {
          "duration": 0.125,
          "durationTicks": 24,
          "midi": 61,
          "name": "C#4",
          "ticks": 600,
          "time": 3.125,
          "velocity": 0.7874015748031497
        },
        {
          "duration": 0.125,
          "durationTicks": 24,
          "midi": 61,
          "name": "C#4",
          "ticks": 648,
          "time": 3.375,
          "velocity": 0.7874015748031497
        },
        {
          "duration": 0.25,
          "durationTicks": 48,
          "midi": 62,
          "name": "D4",
          "ticks": 720,
          "time": 3.75,
          "velocity": 0.7874015748031497
        },
        {
          "duration": 0.25,
          "durationTicks": 48,
          "midi": 66,
          "name": "F#4",
          "ticks": 768,
          "time": 4,
          "velocity": 0.7874015748031497
        },
        {
          "duration": 0.25,
          "durationTicks": 48,
          "midi": 62,
          "name": "D4",
          "ticks": 864,
          "time": 4.5,
          "velocity": 0.7874015748031497
        },
        {
          "duration": 0.125,
          "durationTicks": 24,
          "midi": 66,
          "name": "F#4",
          "ticks": 936,
          "time": 4.875,
          "velocity": 0.7874015748031497
        },
        {
          "duration": 0.125,
          "durationTicks": 24,
          "midi": 66,
          "name": "F#4",
          "ticks": 984,
          "time": 5.125,
          "velocity": 0.7874015748031497
        },
        {
          "duration": 0.125,
          "durationTicks": 24,
          "midi": 66,
          "name": "F#4",
          "ticks": 1032,
          "time": 5.375,
          "velocity": 0.7874015748031497
        },
        {
          "duration": 0.25,
          "durationTicks": 48,
          "midi": 64,
          "name": "E4",
          "ticks": 1104,
          "time": 5.75,
          "velocity": 0.7874015748031497
        },
        {
          "duration": 0.25,
          "durationTicks": 48,
          "midi": 61,
          "name": "C#4",
          "ticks": 1152,
          "time": 6,
          "velocity": 0.7874015748031497
        },
        {
          "duration": 0.25,
          "durationTicks": 48,
          "midi": 57,
          "name": "A3",
          "ticks": 1248,
          "time": 6.5,
          "velocity": 0.7874015748031497
        },
        {
          "duration": 0.125,
          "durationTicks": 24,
          "midi": 61,
          "name": "C#4",
          "ticks": 1320,
          "time": 6.875,
          "velocity": 0.7874015748031497
        },
        {
          "duration": 0.125,
          "durationTicks": 24,
          "midi": 61,
          "name": "C#4",
          "ticks": 1368,
          "time": 7.125,
          "velocity": 0.7874015748031497
        },
        {
          "duration": 0.125,
          "durationTicks": 24,
          "midi": 61,
          "name": "C#4",
          "ticks": 1416,
          "time": 7.375,
          "velocity": 0.7874015748031497
        },
        {
          "duration": 0.25,
          "durationTicks": 48,
          "midi": 62,
          "name": "D4",
          "ticks": 1488,
          "time": 7.75,
          "velocity": 0.7874015748031497
        }
      ],
      "endOfTrackTicks": 1536
    }
  ]
}