{
  "header": {
    "keySignatures": [],
    "meta": [],
    "name": "",
    "ppq": 96,
    "tempos": [
      {
        "bpm": 120,
        "ticks": 0
      }
    ],
    "timeSignatures": [
      {
        "ticks": 0,
        "timeSignature": [
          4,
          4
        ],
        "measures": 0
      }
    ]
  },
  "tracks": [
    {
      "channel": 0,
      "controlChanges": {},
      "pitchBends": [],
      "instrument": {
        "family": "piano",
        "name": "acoustic grand piano",
        "number": 0
      },
      "name": "FL Keys 1",
      "notes": [
        {
          "duration": 0.25,
          "durationTicks": 48,
          "midi": 70,
          "name": "A#4",
          "ticks": 0,
          "time": 0,
          "velocity": 0.7874015748031497
        },
        {
          "duration": 0.25,
          "durationTicks": 48,
          "midi": 70,
          "name": "A#4",
          "ticks": 96,
          "time": 0.5,
          "velocity": 0.7874015748031497
        },
        {
          "duration": 0.25,
          "durationTicks": 48,
          "midi": 69,
          "name": "A4",
          "ticks": 192,
          "time": 1,
          "velocity": 0.7874015748031497
        },
        {
          "duration": 0.25,
          "durationTicks": 48,
          "midi": 67,
          "name": "G4",
          "ticks": 240,
          "time": 1.25,
          "velocity": 0.7874015748031497
        },
        {
          "duration": 0.25,
          "durationTicks": 48,
          "midi": 65,
          "name": "F4",
          "ticks": 288,
          "time": 1.5,
          "velocity": 0.7874015748031497
        },
        {
          "duration": 0.25,
          "durationTicks": 48,
          "midi": 67,
          "name": "G4",
          "ticks": 336,
          "time": 1.75,
          "velocity": 0.7874015748031497
        },
        {
          "duration": 0.25,
          "durationTicks": 48,
          "midi": 67,
          "name": "G4",
          "ticks": 480,
          "time": 2.5,
          "velocity": 0.7874015748031497
        },
        {
          "duration": 0.25,
          "durationTicks": 48,
          "midi": 65,
          "name": "F4",
          "ticks": 528,
          "time": 2.75,
          "velocity": 0.7874015748031497
        },
        {
          "duration": 0.25,
          "durationTicks": 48,
          "midi": 67,
          "name": "G4",
          "ticks": 576,
          "time": 3,
          "velocity": 0.7874015748031497
        },
        {
          "duration": 0.25,
          "durationTicks": 48,
          "midi": 75,
          "name": "D#5",
          "ticks": 624,
          "time": 3.25,
          "velocity": 0.7874015748031497
        },
        {
          "duration": 0.25,
          "durationTicks": 48,
          "midi": 74,
          "name": "D5",
          "ticks": 720,
          "time": 3.75,
          "velocity": 0.7874015748031497
        },
        {
          "duration": 0.25,
          "durationTicks": 48,
          "midi": 74,
          "name": "D5",
          "ticks": 864,
          "time": 4.5,
          "velocity": 0.7874015748031497
        },
        {
          "duration": 0.25,
          "durationTicks": 48,
          "midi": 74,
          "name": "D5",
          "ticks": 864,
          "time": 4.5,
          "velocity": 0.7874015748031497
        },
        {
          "duration": 0.25,
          "durationTicks": 48,
          "midi": 74,
          "name": "D5",
          "ticks": 960,
          "time": 5,
          "velocity": 0.7874015748031497
        },
        {
          "duration": 0.25,
          "durationTicks": 48,
          "midi": 70,
          "name": "A#4",
          "ticks": 1008,
          "time": 5.25,
          "velocity": 0.7874015748031497
        },
        {
          "duration": 0.25,
          "durationTicks": 48,
          "midi": 69,
          "name": "A4",
          "ticks": 1104,
          "time": 5.75,
          "velocity": 0.7874015748031497
        },
        {
          "duration": 0.25,
          "durationTicks": 48,
          "midi": 69,
          "name": "A4",
          "ticks": 1248,
          "time": 6.5,
          "velocity": 0.7874015748031497
        },
        {
          "duration": 0.25,
          "durationTicks": 48,
          "midi": 70,
          "name": "A#4",
          "ticks": 1344,
          "time": 7,
          "velocity": 0.7874015748031497
        },
        {
          "duration": 0.25,
          "durationTicks": 48,
          "midi": 69,
          "name": "A4",
          "ticks": 1392,
          "time": 7.25,
          "velocity": 0.7874015748031497
        },
        {
          "duration": 0.25,
          "durationTicks": 48,
          "midi": 67,
          "name": "G4",
          "ticks": 1440,
          "time": 7.5,
          "velocity": 0.7874015748031497
        },
        {
          "duration": 0.25,
          "durationTicks": 48,
          "midi": 69,
          "name": "A4",
          "ticks": 1488,
          "time": 7.75,
          "velocity": 0.7874015748031497
        }
      ],
      "endOfTrackTicks": 1536
    }
  ]
}