{"header":{"keySignatures":[],"meta":[],"name":"","ppq":96,"tempos":[{"bpm":120,"ticks":0}],"timeSignatures":[{"ticks":0,"timeSignature":[4,4],"measures":0}]},"tracks":[{"channel":0,"controlChanges":{},"pitchBends":[],"instrument":{"family":"piano","name":"acoustic grand piano","number":0},"notes":[{"duration":0.25,"durationTicks":48,"midi":65,"name":"F4","ticks":0,"time":0,"velocity":0.8},{"duration":0.375,"durationTicks":72,"midi":60,"name":"C4","ticks":48,"time":0.25,"velocity":0.8},{"duration":0.375,"durationTicks":72,"midi":72,"name":"C5","ticks":120,"time":0.625,"velocity":0.8},{"duration":0.125,"durationTicks":24,"midi":59,"name":"B3","ticks":192,"time":1,"velocity":0.8},{"duration":0.375,"durationTicks":72,"midi":60,"name":"C4","ticks":216,"time":1.125,"velocity":0.8},{"duration":0.5,"durationTicks":96,"midi":60,"name":"C4","ticks":288,"time":1.5,"velocity":0.8},{"duration":0.25,"durationTicks":48,"midi":71,"name":"B4","ticks":384,"time":2,"velocity":0.8},{"duration":0.375,"durationTicks":72,"midi":60,"name":"C4","ticks":432,"time":2.25,"velocity":0.8},{"duration":0.375,"durationTicks":72,"midi":74,"name":"D5","ticks":504,"time":2.625,"velocity":0.8},{"duration":0.125,"durationTicks":24,"midi":60,"name":"C4","ticks":576,"time":3,"velocity":0.8},{"duration":0.375,"durationTicks":72,"midi":60,"name":"C4","ticks":600,"time":3.125,"velocity":0.8},{"duration":0.5,"durationTicks":96,"midi":59,"name":"B3","ticks":672,"time":3.5,"velocity":0.8},{"duration":0.25,"durationTicks":48,"midi":65,"name":"F4","ticks":768,"time":4,"velocity":0.8},{"duration":0.375,"durationTicks":72,"midi":60,"name":"C4","ticks":816,"time":4.25,"velocity":0.8},{"duration":0.375,"durationTicks":72,"midi":74,"name":"D5","ticks":888,"time":4.625,"velocity":0.8},{"duration":0.125,"durationTicks":24,"midi":62,"name":"D4","ticks":960,"time":5,"velocity":0.8},{"duration":0.375,"durationTicks":72,"midi":60,"name":"C4","ticks":984,"time":5.125,"velocity":0.8},{"duration":0.5,"durationTicks":96,"midi":60,"name":"C4","ticks":1056,"time":5.5,"velocity":0.8},{"duration":0.25,"durationTicks":48,"midi":65,"name":"F4","ticks":1152,"time":6,"velocity":0.8},{"duration":0.375,"durationTicks":72,"midi":60,"name":"C4","ticks":1200,"time":6.25,"velocity":0.8},{"duration":0.375,"durationTicks":72,"midi":74,"name":"D5","ticks":1272,"time":6.625,"velocity":0.8},{"duration":0.125,"durationTicks":24,"midi":62,"name":"D4","ticks":1344,"time":7,"velocity":0.8},{"duration":0.375,"durationTicks":72,"midi":60,"name":"C4","ticks":1368,"time":7.125,"velocity":0.8},{"duration":0.5,"durationTicks":96,"midi":60,"name":"C4","ticks":1440,"time":7.5,"velocity":0.8}],"endOfTrackTicks":1536}]}