{"header":{"keySignatures":[],"meta":[],"name":"","ppq":96,"tempos":[{"bpm":120,"ticks":0}],"timeSignatures":[{"ticks":0,"timeSignature":[4,4],"measures":0}]},"tracks":[{"channel":0,"controlChanges":{},"pitchBends":[],"instrument":{"family":"piano","name":"acoustic grand piano","number":0},"notes":[{"duration":0.375,"durationTicks":72,"midi":71,"name":"B4","ticks":0,"time":0,"velocity":0.8},{"duration":0.375,"durationTicks":72,"midi":65,"name":"F4","ticks":72,"time":0.375,"velocity":0.8},{"duration":0.125,"durationTicks":24,"midi":67,"name":"G4","ticks":144,"time":0.75,"velocity":0.8},{"duration":0.5,"durationTicks":96,"midi":69,"name":"A4","ticks":168,"time":0.875,"velocity":0.8},{"duration":0.125,"durationTicks":24,"midi":62,"name":"D4","ticks":264,"time":1.375,"velocity":0.8},{"duration":0.5,"durationTicks":96,"midi":60,"name":"C4","ticks":288,"time":1.5,"velocity":0.8},{"duration":0.375,"durationTicks":72,"midi":71,"name":"B4","ticks":384,"time":2,"velocity":0.8},{"duration":0.375,"durationTicks":72,"midi":65,"name":"F4","ticks":456,"time":2.375,"velocity":0.8},{"duration":0.125,"durationTicks":24,"midi":67,"name":"G4","ticks":528,"time":2.75,"velocity":0.8},{"duration":0.5,"durationTicks":96,"midi":67,"name":"G4","ticks":552,"time":2.875,"velocity":0.8},{"duration":0.125,"durationTicks":24,"midi":62,"name":"D4","ticks":648,"time":3.375,"velocity":0.8},{"duration":0.5,"durationTicks":96,"midi":65,"name":"F4","ticks":672,"time":3.5,"velocity":0.8},{"duration":0.375,"durationTicks":72,"midi":71,"name":"B4","ticks":768,"time":4,"velocity":0.8},{"duration":0.375,"durationTicks":72,"midi":65,"name":"F4","ticks":840,"time":4.375,"velocity":0.8},{"duration":0.125,"durationTicks":24,"midi":67,"name":"G4","ticks":912,"time":4.75,"velocity":0.8},{"duration":0.5,"durationTicks":96,"midi":67,"name":"G4","ticks":936,"time":4.875,"velocity":0.8},{"duration":0.125,"durationTicks":24,"midi":62,"name":"D4","ticks":1032,"time":5.375,"velocity":0.8},{"duration":0.5,"durationTicks":96,"midi":60,"name":"C4","ticks":1056,"time":5.5,"velocity":0.8},{"duration":0.375,"durationTicks":72,"midi":71,"name":"B4","ticks":1152,"time":6,"velocity":0.8},{"duration":0.375,"durationTicks":72,"midi":65,"name":"F4","ticks":1224,"time":6.375,"velocity":0.8},{"duration":0.125,"durationTicks":24,"midi":67,"name":"G4","ticks":1296,"time":6.75,"velocity":0.8},{"duration":0.5,"durationTicks":96,"midi":67,"name":"G4","ticks":1320,"time":6.875,"velocity":0.8},{"duration":0.125,"durationTicks":24,"midi":62,"name":"D4","ticks":1416,"time":7.375,"velocity":0.8},{"duration":0.5,"durationTicks":96,"midi":60,"name":"C4","ticks":1440,"time":7.5,"velocity":0.8}],"endOfTrackTicks":1536}]}