{"header":{"keySignatures":[],"meta":[],"name":"","ppq":96,"tempos":[{"bpm":120,"ticks":0}],"timeSignatures":[{"ticks":0,"timeSignature":[4,4],"measures":0}]},"tracks":[{"channel":0,"controlChanges":{},"pitchBends":[],"instrument":{"family":"piano","name":"acoustic grand piano","number":0},"notes":[{"duration":0.375,"durationTicks":72,"midi":60,"name":"C4","ticks":0,"time":0,"velocity":0.8},{"duration":0.125,"durationTicks":24,"midi":72,"name":"C5","ticks":72,"time":0.375,"velocity":0.8},{"duration":0.375,"durationTicks":72,"midi":67,"name":"G4","ticks":96,"time":0.5,"velocity":0.8},{"duration":0.5,"durationTicks":96,"midi":71,"name":"B4","ticks":168,"time":0.875,"velocity":0.8},{"duration":0.5,"durationTicks":96,"midi":71,"name":"B4","ticks":264,"time":1.375,"velocity":0.8},{"duration":0.375,"durationTicks":72,"midi":59,"name":"B3","ticks":384,"time":2,"velocity":0.8},{"duration":0.125,"durationTicks":24,"midi":72,"name":"C5","ticks":456,"time":2.375,"velocity":0.8},{"duration":0.375,"durationTicks":72,"midi":65,"name":"F4","ticks":480,"time":2.5,"velocity":0.8},{"duration":0.25,"durationTicks":48,"midi":71,"name":"B4","ticks":552,"time":2.875,"velocity":0.8},{"duration":0.25,"durationTicks":48,"midi":71,"name":"B4","ticks":600,"time":3.125,"velocity":0.8},{"duration":0.5,"durationTicks":96,"midi":65,"name":"F4","ticks":648,"time":3.375,"velocity":0.8},{"duration":0.375,"durationTicks":72,"midi":60,"name":"C4","ticks":768,"time":4,"velocity":0.8},{"duration":0.125,"durationTicks":24,"midi":72,"name":"C5","ticks":840,"time":4.375,"velocity":0.8},{"duration":0.375,"durationTicks":72,"midi":67,"name":"G4","ticks":864,"time":4.5,"velocity":0.8},{"duration":0.25,"durationTicks":48,"midi":71,"name":"B4","ticks":936,"time":4.875,"velocity":0.8},{"duration":0.25,"durationTicks":48,"midi":71,"name":"B4","ticks":984,"time":5.125,"velocity":0.8},{"duration":0.5,"durationTicks":96,"midi":62,"name":"D4","ticks":1032,"time":5.375,"velocity":0.8},{"duration":0.375,"durationTicks":72,"midi":60,"name":"C4","ticks":1152,"time":6,"velocity":0.8},{"duration":0.125,"durationTicks":24,"midi":72,"name":"C5","ticks":1224,"time":6.375,"velocity":0.8},{"duration":0.375,"durationTicks":72,"midi":67,"name":"G4","ticks":1248,"time":6.5,"velocity":0.8},{"duration":0.25,"durationTicks":48,"midi":71,"name":"B4","ticks":1320,"time":6.875,"velocity":0.8},{"duration":0.25,"durationTicks":48,"midi":71,"name":"B4","ticks":1368,"time":7.125,"velocity":0.8},{"duration":0.625,"durationTicks":120,"midi":62,"name":"D4","ticks":1416,"time":7.375,"velocity":0.8}],"endOfTrackTicks":1536}]}